<svg width="128" height="128" viewBox="0 0 32 32" xmlns="http://www.w3.org/2000/svg">
  <defs>
    <linearGradient id="grad1" x1="0%" y1="0%" x2="100%" y2="100%">
      <stop offset="0%" style="stop-color:#4285F4;stop-opacity:1" />
      <stop offset="100%" style="stop-color:#0F9D58;stop-opacity:1" />
    </linearGradient>
  </defs>
  <path fill="url(#grad1)" d="M16 3C9.925 3 5 7.925 5 14c0 2.394.83 4.604 2.281 6.344L5 23h7.125A6.002 6.002 0 0 0 18 24.875V25a1 1 0 1 0 2 0v-1h-1.125a6.002 6.002 0 0 0 5.844-2.656H27l-2.281-2.656A8.94 8.94 0 0 0 27 14c0-6.075-4.925-11-11-11z"/>
  <rect x="12" y="11" width="3" height="9" fill="white" rx="1.5"/>
  <rect x="17" y="11" width="3" height="9" fill="white" rx="1.5"/>
</svg>
